<svg width="117" height="26" viewBox="0 0 117 26" fill="none" xmlns="http://www.w3.org/2000/svg">
<path d="M12.8929 19H1.35714C0.997206 19 0.652012 18.8736 0.397498 18.6485C0.142984 18.4235 0 18.1183 0 17.8V8.2C0 7.88174 0.142984 7.57652 0.397498 7.35147C0.652012 7.12643 0.997206 7 1.35714 7H12.8929C13.2528 7 13.598 7.12643 13.8525 7.35147C14.107 7.57652 14.25 7.88174 14.25 8.2V10.636L17.9279 8.314C18.0291 8.25024 18.1483 8.21231 18.2723 8.20434C18.3963 8.19638 18.5204 8.21869 18.631 8.26884C18.7416 8.31899 18.8346 8.39505 18.8996 8.48872C18.9647 8.58239 18.9994 8.69007 19 8.8V17.2C18.9994 17.3099 18.9647 17.4176 18.8996 17.5113C18.8346 17.6049 18.7416 17.681 18.631 17.7312C18.5204 17.7813 18.3963 17.8036 18.2723 17.7957C18.1483 17.7877 18.0291 17.7498 17.9279 17.686L14.25 15.364V17.8C14.25 18.1183 14.107 18.4235 13.8525 18.6485C13.598 18.8736 13.2528 19 12.8929 19Z" fill="white"/>
<path d="M47.3144 4.27005L48.2551 3.79079C49.135 3.34093 50.2068 3.65863 50.7587 4.53152L51.8571 6.27018C52.3354 7.02685 52.3003 8.01596 51.7711 8.71391L50.2973 10.6561C50.5678 11.6296 51.061 12.5506 51.7759 13.4199C52.4587 14.2614 53.3035 14.9574 54.2601 15.4667L56.2425 14.4247C56.9938 14.0292 57.9083 14.1916 58.513 14.8274L59.9217 16.3102C60.6251 17.0503 60.7112 18.2151 60.1245 19.0348L59.4944 19.916C58.8687 20.7914 57.8421 21.2398 56.8007 21.0935C54.3421 20.7469 51.8363 18.9332 49.2833 15.6525C46.7268 12.3657 45.5314 9.41891 45.6975 6.80924C45.7669 5.71116 46.3826 4.74616 47.3144 4.27005Z" fill="white"/>
<path d="M99.1544 6.5C99.1544 7.39746 100.022 8.125 101.092 8.125C102.162 8.125 103.029 7.39746 103.029 6.5C103.029 5.60254 102.162 4.875 101.092 4.875C100.022 4.875 99.1544 5.60254 99.1544 6.5Z" fill="#FAFFFF"/>
<path d="M99.1544 13C99.1544 13.8975 100.022 14.625 101.092 14.625C102.162 14.625 103.029 13.8975 103.029 13C103.029 12.1025 102.162 11.375 101.092 11.375C100.022 11.375 99.1544 12.1025 99.1544 13Z" fill="#FAFFFF"/>
<path d="M99.1544 19.5C99.1544 20.3975 100.022 21.125 101.092 21.125C102.162 21.125 103.029 20.3975 103.029 19.5C103.029 18.6025 102.162 17.875 101.092 17.875C100.022 17.875 99.1544 18.6025 99.1544 19.5Z" fill="#FAFFFF"/>
</svg>
