<svg width="25" height="25" viewBox="0 0 25 25" fill="none" xmlns="http://www.w3.org/2000/svg">
<path d="M22.2068 20.8618L15.8665 14.5215C16.8503 13.2495 17.3826 11.6943 17.3826 10.0586C17.3826 8.10059 16.6184 6.26465 15.2366 4.88037C13.8547 3.49609 12.0139 2.73438 10.0584 2.73438C8.10278 2.73438 6.26196 3.49854 4.88013 4.88037C3.49585 6.26221 2.73413 8.10059 2.73413 10.0586C2.73413 12.0142 3.49829 13.855 4.88013 15.2368C6.26196 16.6211 8.10034 17.3828 10.0584 17.3828C11.6941 17.3828 13.2468 16.8506 14.5188 15.8691L20.8591 22.207C20.8777 22.2256 20.8998 22.2404 20.9241 22.2505C20.9484 22.2605 20.9744 22.2657 21.0007 22.2657C21.027 22.2657 21.0531 22.2605 21.0774 22.2505C21.1017 22.2404 21.1237 22.2256 21.1423 22.207L22.2068 21.145C22.2254 21.1264 22.2401 21.1044 22.2502 21.0801C22.2603 21.0558 22.2655 21.0297 22.2655 21.0034C22.2655 20.9771 22.2603 20.9511 22.2502 20.9268C22.2401 20.9025 22.2254 20.8804 22.2068 20.8618ZM13.9255 13.9258C12.8904 14.9585 11.5183 15.5273 10.0584 15.5273C8.59839 15.5273 7.22632 14.9585 6.19116 13.9258C5.15845 12.8906 4.5896 11.5186 4.5896 10.0586C4.5896 8.59863 5.15845 7.22412 6.19116 6.19141C7.22632 5.15869 8.59839 4.58984 10.0584 4.58984C11.5183 4.58984 12.8928 5.15625 13.9255 6.19141C14.9583 7.22656 15.5271 8.59863 15.5271 10.0586C15.5271 11.5186 14.9583 12.8931 13.9255 13.9258Z" fill="#FAFFFF"/>
</svg>
