<svg width="32" height="26" viewBox="0 0 32 26" fill="none" xmlns="http://www.w3.org/2000/svg">
<path d="M14.1544 6.5C14.1544 7.39746 15.0219 8.125 16.0919 8.125C17.162 8.125 18.0294 7.39746 18.0294 6.5C18.0294 5.60254 17.162 4.875 16.0919 4.875C15.0219 4.875 14.1544 5.60254 14.1544 6.5Z" fill="#FAFFFF"/>
<path d="M14.1544 13C14.1544 13.8975 15.0219 14.625 16.0919 14.625C17.162 14.625 18.0294 13.8975 18.0294 13C18.0294 12.1025 17.162 11.375 16.0919 11.375C15.0219 11.375 14.1544 12.1025 14.1544 13Z" fill="#FAFFFF"/>
<path d="M14.1544 19.5C14.1544 20.3975 15.0219 21.125 16.0919 21.125C17.162 21.125 18.0294 20.3975 18.0294 19.5C18.0294 18.6025 17.162 17.875 16.0919 17.875C15.0219 17.875 14.1544 18.6025 14.1544 19.5Z" fill="#FAFFFF"/>
</svg>
