<svg width="16" height="19" viewBox="0 0 16 19" fill="none" xmlns="http://www.w3.org/2000/svg">
<path d="M2.31437 1.27005L3.25505 0.790788C4.13501 0.340929 5.20675 0.658633 5.75871 1.53152L6.85711 3.27018C7.33535 4.02685 7.30033 5.01596 6.77108 5.71391L5.29727 7.65609C5.56783 8.62959 6.06097 9.55064 6.77589 10.4199C7.45874 11.2614 8.30348 11.9574 9.26011 12.4667L11.2425 11.4247C11.9938 11.0292 12.9083 11.1916 13.513 11.8274L14.9217 13.3102C15.6251 14.0503 15.7112 15.2151 15.1245 16.0348L14.4944 16.916C13.8687 17.7914 12.8421 18.2398 11.8007 18.0935C9.34213 17.7469 6.83632 15.9332 4.28329 12.6525C1.72676 9.36574 0.531385 6.41891 0.697503 3.80924C0.766943 2.71116 1.38264 1.74616 2.31437 1.27005Z" fill="white"/>
</svg>
